# xmcd CD database file
#
# Track frame offsets:
#	182
#	16127
#	30907
#	45037
#	57675
#	72237
#	84870
#	100647
#	113190
#	126147
#	141672
#	156912
#	172265
#	189527
#	205787
#	220625
#	220955
#	236327
#	238357
#	239682
#	242685
#	244027
#	255652
#	257370
#	258435
#	267687
#	277247
#	280637
#	292005
#	294622
#	299685
#	300497
#	318292
#	320342
#
# Disc length: 4437 seconds
#
# Revision: 7
# Processed by: cddbd v1.5.1PL2 Copyright (c) Steve Scherf et al.
# Submitted via: CDex 1.70beta1
#
DISCID=0a115322
DTITLE=Charlie Parker - Bird: The Complete Charlie Parker On Verve [CD4]
DYEAR=1990
DGENRE=Jazz
TTITLE0=Just Friends
TTITLE1=Everything Happens To Me
TTITLE2=April In Paris
TTITLE3=Summertime
TTITLE4=I Didn't Know What Time It Was
TTITLE5=If I Should Lose You
TTITLE6=Star Eyes
TTITLE7=Blues (fast)
TTITLE8=I'm In The Mood For Love
TTITLE9=Bloomdido
TTITLE10=An Oscar For Treadwell (tk 3 alt - LP)
TTITLE11=An Oscar For Treadwell (tk 4 mst)
TTITLE12=Mohawk (tk 3 alt - LP)
TTITLE13=Mohawk (tk 6 [tk 4] mst)
TTITLE14=My Melancholy Baby (tk 1)
TTITLE15=My Melancholy Baby (Coda Rehearsal)
TTITLE16=My Melancholy Baby (tk 2 mst)
TTITLE17=Leap Frog (tk 1 inc)
TTITLE18=Leap Frog (tk 2 inc)
TTITLE19=Leap Frog (tk 3 inc)
TTITLE20=Leap Frog (tk 4 inc)
TTITLE21=Leap Frog (tk 5 cpt)
TTITLE22=Leap Frog (tk 6 inc)
TTITLE23=Leap Frog (tk 7 inc)
TTITLE24=Leap Frog (tk 8 [tk 4] alt)
TTITLE25=Leap Frog (tk 9 cpt)
TTITLE26=Leap Frog (tk 10 inc)
TTITLE27=Leap Frog (tk 11 [tk 6] mst)
TTITLE28=Relaxing With Lee (tk 1 inc)
TTITLE29=Relaxing With Lee (tk 2 inc)
TTITLE30=Relaxing With Lee (tk 3 fs)
TTITLE31=Relaxing With Lee (tk 4 [tk 2] alt - LP)
TTITLE32=Relaxing With Lee (tk 5 inc)
TTITLE33=Relaxing With Lee (tk 6 [tk 3] mst)
EXTD=YEAR: 1990
EXTT0=
EXTT1=
EXTT2=
EXTT3=
EXTT4=
EXTT5=
EXTT6=
EXTT7=
EXTT8=
EXTT9=
EXTT10=
EXTT11=
EXTT12=
EXTT13=
EXTT14=
EXTT15=
EXTT16=
EXTT17=
EXTT18=
EXTT19=
EXTT20=
EXTT21=
EXTT22=
EXTT23=
EXTT24=
EXTT25=
EXTT26=
EXTT27=
EXTT28=
EXTT29=
EXTT30=
EXTT31=
EXTT32=
EXTT33=
PLAYORDER=
